<?xml version="1.0" encoding="UTF-8"?>
<!-- Uploaded to: SVG Repo, www.svgrepo.com, Generator: SVG Repo Mixer Tools -->
<svg width="800px" height="800px" viewBox="0 -2.5 40 40" version="1.1" xmlns="http://www.w3.org/2000/svg" xmlns:xlink="http://www.w3.org/1999/xlink">
    
    <title>craps</title>
    <desc>Created with Sketch.</desc>
    <g id="icons" stroke="none" stroke-width="1" fill="none" fill-rule="evenodd">
        <g id="ui-gambling-website-lined-icnos-casinoshunter" transform="translate(-2290.000000, -543.000000)" fill="#1C1C1F" fill-rule="nonzero">
            <g id="1" transform="translate(1350.000000, 120.000000)">
                <path d="M956.128231,430.03388 L954.350675,436.670826 C954.211432,436.700087 954.074382,436.751561 953.944463,436.82657 C953.284634,437.207522 953.058583,438.051282 953.439563,438.71116 C953.514465,438.840893 953.607253,438.95386 953.713014,439.048745 L953.03431,441.583721 C952.620943,443.126957 953.489272,444.711632 954.98673,445.207469 L955.15567,445.258023 L958.123887,446.053613 C958.041158,446.387781 958.082621,446.753172 958.268349,447.074863 C958.64933,447.734741 959.493073,447.960854 960.152902,447.579902 C960.474962,447.393961 960.693679,447.097762 960.788908,446.766504 L967.593933,448.591285 C967.374509,448.89052 967.0908,449.150106 966.748837,449.347539 L952.412123,457.624845 C951.092465,458.38675 949.404979,457.934522 948.643017,456.614766 L940.365098,442.27699 C939.603137,440.957234 940.055239,439.269715 941.374897,438.50781 L955.711611,430.230504 C955.847075,430.152294 955.986415,430.086877 956.128231,430.03388 Z M952.799618,448.63915 C952.139789,449.020102 951.913738,449.863862 952.294719,450.52374 C952.675699,451.183618 953.519442,451.409732 954.179271,451.028779 C954.8391,450.647827 955.065152,449.804067 954.684171,449.144189 C954.30319,448.484311 953.459447,448.258197 952.799618,448.63915 Z M961.966275,423.097136 L977.956802,427.381785 C979.428689,427.776176 980.302149,429.289182 979.907729,430.761178 L975.622762,446.75289 C975.228342,448.224886 973.715401,449.098458 972.243514,448.704067 L956.252987,444.419418 C954.7811,444.025027 953.90764,442.512021 954.30206,441.040025 L958.587026,425.048313 C958.981447,423.576317 960.494388,422.702745 961.966275,423.097136 Z M950.385225,444.457298 C949.725396,444.838251 949.499345,445.682011 949.880326,446.341889 C950.261306,447.001767 951.105049,447.22788 951.764878,446.846928 C952.424707,446.465975 952.650759,445.622216 952.269778,444.962338 C951.888797,444.30246 951.045054,444.076346 950.385225,444.457298 Z M947.970832,440.275447 C947.311003,440.656399 947.084952,441.500159 947.465932,442.160037 C947.846913,442.819915 948.690656,443.046029 949.350485,442.665076 C950.010314,442.284124 950.236366,441.440364 949.855385,440.780486 C949.474404,440.120608 948.630661,439.894495 947.970832,440.275447 Z M968.104738,440.021992 C967.907528,440.75799 968.344258,441.514493 969.080201,441.711688 C969.816145,441.908884 970.572615,441.472098 970.769826,440.7361 C970.967036,440.000102 970.530306,439.243599 969.794362,439.046403 C969.058419,438.849208 968.301948,439.285994 968.104738,440.021992 Z M961.442018,438.236721 C961.244808,438.97272 961.681538,439.729223 962.417482,439.926418 C963.153425,440.123614 963.909896,439.686828 964.107106,438.95083 C964.304316,438.214831 963.867586,437.458328 963.131643,437.261133 C962.395699,437.063937 961.639228,437.500723 961.442018,438.236721 Z M969.785426,432.998307 C969.588216,433.734305 970.024946,434.490808 970.760889,434.688003 C971.496833,434.885199 972.253304,434.448413 972.450514,433.712415 C972.647724,432.976417 972.210994,432.219914 971.47505,432.022718 C970.739107,431.825523 969.982636,432.262308 969.785426,432.998307 Z M963.122706,431.213036 C962.925496,431.949035 963.362226,432.705538 964.09817,432.902733 C964.834114,433.099929 965.590584,432.663143 965.787794,431.927144 C965.985004,431.191146 965.548275,430.434643 964.812331,430.237448 C964.076387,430.040252 963.319917,430.477038 963.122706,431.213036 Z" id="craps">
</path>
            </g>
        </g>
    </g>
</svg>